<svg xmlns="http://www.w3.org/2000/svg" width="112" height="40" version="1">
 <defs id="nova">
  <style id="current-color-scheme" type="text/css">
   .ColorScheme-Background {color:#181818; } .ColorScheme-ButtonBackground { color:#343434; } .ColorScheme-Highlight { color:#4285f4; } .ColorScheme-Text { color:#dfdfdf; } .ColorScheme-ViewBackground { color:#242424; } .ColorScheme-NegativeText { color:#f44336; } .ColorScheme-PositiveText { color:#4caf50; } .ColorScheme-NeutralText { color:#ff9800; }
  </style>
 </defs>
 <rect id="hint-stretch-borders" style="opacity:1;fill:#ff0000" width="4" height="4" x="0" y="0"/>
 <g id="selected-top" transform="matrix(2,0,0,2,-132,-1484)">
  <path style="opacity:0.001" transform="translate(18)" d="m 53,744 v 1 h 8 v -1 z"/>
  <path style="opacity:0.90;fill:currentColor" class="ColorScheme-Highlight" d="m 71,745 h 8 v 4 h -8 z"/>
 </g>
 <g id="selected-bottom" transform="matrix(2,0,0,2,-132,-1484)">
  <path style="opacity:0.001" transform="translate(18)" d="m 53,761 v 1 h 8 v -1 z"/>
  <path style="opacity:0.90;fill:currentColor" class="ColorScheme-Highlight" d="m 71,757 h 8 v 4 h -8 z"/>
 </g>
 <path id="selected-center" style="opacity:0.90;fill:currentColor" class="ColorScheme-Highlight" d="m 10.000005,14.000014 h 16 v 16 h -16 z"/>
 <g id="selected-right" transform="matrix(2,0,0,2,-132,-1484)">
  <path style="opacity:0.001" transform="translate(18)" d="m 65,749 v 8 h 1 v -8 z"/>
  <path style="opacity:0.90;fill:currentColor" class="ColorScheme-Highlight" d="m 79,749 h 4 v 8 h -4 z"/>
 </g>
 <g id="selected-left" transform="matrix(2,0,0,2,-132,-1484)">
  <path style="opacity:0.001" transform="translate(18)" d="m 48,749 v 8 h 1 v -8 z"/>
  <path style="opacity:0.90;fill:currentColor" class="ColorScheme-Highlight" d="m 67,749 h 4 v 8 h -4 z"/>
 </g>
 <g id="selected-topleft" transform="matrix(2,0,0,2,-132,-1484)">
  <path style="opacity:0.001" transform="translate(18)" d="m 48,744 v 5 h 1 c 0,0 0,-4 4,-4 v -1 z"/>
  <path style="opacity:0.90;fill:currentColor" class="ColorScheme-Highlight" d="m 71,745 v 4 h -4 c 0,0 0,-4 4,-4 z"/>
 </g>
 <g id="selected-topright" transform="matrix(2,0,0,2,-132,-1484)">
  <path style="opacity:0.001" transform="translate(18)" d="m 61,744 v 1 c 4,0 4,4 4,4 h 1 v -5 z"/>
  <path style="opacity:0.90;fill:currentColor" class="ColorScheme-Highlight" d="m 79,745 c 4,0 4,4 4,4 h -4 z"/>
 </g>
 <g id="selected-bottomleft" transform="matrix(2,0,0,2,-132,-1484)">
  <path style="opacity:0.001" transform="translate(18)" d="m 48,757 v 5 h 5 v -1 c 0,0 -4,0 -4,-4 z"/>
  <path style="opacity:0.90;fill:currentColor" class="ColorScheme-Highlight" d="m 67,757 h 4 v 4 c 0,0 -4,0 -4,-4 z"/>
 </g>
 <g id="selected-bottomright" transform="matrix(2,0,0,2,-132,-1484)">
  <path style="opacity:0.001" transform="translate(18)" d="m 65,757 c 0,0 0.01477,4 -4,4 v 1 h 5 v -5 z"/>
  <path style="opacity:0.90;fill:currentColor" class="ColorScheme-Highlight" d="m 79,757 h 4 c 0,0 0.01477,4 -4,4 z"/>
 </g>
 <g id="hover-top" transform="matrix(2,0,0,2,-94,-1484)">
  <path style="opacity:0.001" transform="translate(18)" d="m 53,744 v 1 h 8 v -1 z"/>
  <path style="opacity:0.90;fill:currentColor" class="ColorScheme-Highlight" d="m 71,745 h 8 v 4 h -8 z"/>
 </g>
 <g id="hover-bottom" transform="matrix(2,0,0,2,-94,-1484)">
  <path style="opacity:0.001" transform="translate(18)" d="m 53,761 v 1 h 8 v -1 z"/>
  <path style="opacity:0.90;fill:currentColor" class="ColorScheme-Highlight" d="m 71,757 h 8 v 4 h -8 z"/>
 </g>
 <path id="hover-center" style="opacity:0.90;fill:currentColor" class="ColorScheme-Highlight" d="m 48.000003,14.000071 h 16 v 16 h -16 z"/>
 <g id="hover-right" transform="matrix(2,0,0,2,-94,-1484)">
  <path style="opacity:0.001" transform="translate(18)" d="m 65,749 v 8 h 1 v -8 z"/>
  <path style="opacity:0.90;fill:currentColor" class="ColorScheme-Highlight" d="m 79,749 h 4 v 8 h -4 z"/>
 </g>
 <g id="hover-left" transform="matrix(2,0,0,2,-94,-1484)">
  <path style="opacity:0.001" transform="translate(18)" d="m 48,749 v 8 h 1 v -8 z"/>
  <path style="opacity:0.90;fill:currentColor" class="ColorScheme-Highlight" d="m 67,749 h 4 v 8 h -4 z"/>
 </g>
 <g id="hover-topleft" transform="matrix(2,0,0,2,-94,-1484)">
  <path style="opacity:0.001" transform="translate(18)" d="m 48,744 v 5 h 1 c 0,0 0,-4 4,-4 v -1 z"/>
  <path style="opacity:0.90;fill:currentColor" class="ColorScheme-Highlight" d="m 71,745 v 4 h -4 c 0,0 0,-4 4,-4 z"/>
 </g>
 <g id="hover-topright" transform="matrix(2,0,0,2,-94,-1484)">
  <path style="opacity:0.001" transform="translate(18)" d="m 61,744 v 1 c 4,0 4,4 4,4 h 1 v -5 z"/>
  <path style="opacity:0.90;fill:currentColor" class="ColorScheme-Highlight" d="m 79,745 c 4,0 4,4 4,4 h -4 z"/>
 </g>
 <g id="hover-bottomleft" transform="matrix(2,0,0,2,-94,-1484)">
  <path style="opacity:0.001" transform="translate(18)" d="m 48,757 v 5 h 5 v -1 c 0,0 -4,0 -4,-4 z"/>
  <path style="opacity:0.90;fill:currentColor" class="ColorScheme-Highlight" d="m 67,757 h 4 v 4 c 0,0 -4,0 -4,-4 z"/>
 </g>
 <g id="hover-bottomright" transform="matrix(2,0,0,2,-94,-1484)">
  <path style="opacity:0.001" transform="translate(18)" d="m 65,757 c 0,0 0.01477,4 -4,4 v 1 h 5 v -5 z"/>
  <path style="opacity:0.90;fill:currentColor" class="ColorScheme-Highlight" d="m 79,757 h 4 c 0,0 0.01477,4 -4,4 z"/>
 </g>
 <g id="selected_hover-top" transform="matrix(2,0,0,2,-56,-1484)">
  <path style="opacity:0.001" transform="translate(18)" d="m 53,744 v 1 h 8 v -1 z"/>
  <path style="opacity:0.90;fill:currentColor" class="ColorScheme-Highlight" d="m 71,745 h 8 v 4 h -8 z"/>
 </g>
 <g id="selected_hover-bottom" transform="matrix(2,0,0,2,-56,-1484)">
  <path style="opacity:0.001" transform="translate(18)" d="m 53,761 v 1 h 8 v -1 z"/>
  <path style="opacity:0.90;fill:currentColor" class="ColorScheme-Highlight" d="m 71,757 h 8 v 4 h -8 z"/>
 </g>
 <path id="selected_hover-center" style="opacity:0.90;fill:currentColor" class="ColorScheme-Highlight" d="M 86.000003,14.000027 H 102 v 16 H 86.000003 Z"/>
 <g id="selected_hover-right" transform="matrix(2,0,0,2,-56,-1484)">
  <path style="opacity:0.001" transform="translate(18)" d="m 65,749 v 8 h 1 v -8 z"/>
  <path style="opacity:0.90;fill:currentColor" class="ColorScheme-Highlight" d="m 79,749 h 4 v 8 h -4 z"/>
 </g>
 <g id="selected_hover-left" transform="matrix(2,0,0,2,-56,-1484)">
  <path style="opacity:0.001" transform="translate(18)" d="m 48,749 v 8 h 1 v -8 z"/>
  <path style="opacity:0.90;fill:currentColor" class="ColorScheme-Highlight" d="m 67,749 h 4 v 8 h -4 z"/>
 </g>
 <g id="selected_hover-topleft" transform="matrix(2,0,0,2,-56,-1484)">
  <path style="opacity:0.001" transform="translate(18)" d="m 48,744 v 5 h 1 c 0,0 0,-4 4,-4 v -1 z"/>
  <path style="opacity:0.90;fill:currentColor" class="ColorScheme-Highlight" d="m 71,745 v 4 h -4 c 0,0 0,-4 4,-4 z"/>
 </g>
 <g id="selected_hover-topright" transform="matrix(2,0,0,2,-56,-1484)">
  <path style="opacity:0.001" transform="translate(18)" d="m 61,744 v 1 c 4,0 4,4 4,4 h 1 v -5 z"/>
  <path style="opacity:0.90;fill:currentColor" class="ColorScheme-Highlight" d="m 79,745 c 4,0 4,4 4,4 h -4 z"/>
 </g>
 <g id="selected_hover-bottomleft" transform="matrix(2,0,0,2,-56,-1484)">
  <path style="opacity:0.001" transform="translate(18)" d="m 48,757 v 5 h 5 v -1 c 0,0 -4,0 -4,-4 z"/>
  <path style="opacity:0.90;fill:currentColor" class="ColorScheme-Highlight" d="m 67,757 h 4 v 4 c 0,0 -4,0 -4,-4 z"/>
 </g>
 <g id="selected_hover-bottomright" transform="matrix(2,0,0,2,-56,-1484)">
  <path style="opacity:0.001" transform="translate(18)" d="m 65,757 c 0,0 0.01477,4 -4,4 v 1 h 5 v -5 z"/>
  <path style="opacity:0.90;fill:currentColor" class="ColorScheme-Highlight" d="m 79,757 h 4 c 0,0 0.01477,4 -4,4 z"/>
 </g>
</svg>
